<svg width="20" height="22" viewBox="0 0 20 22" fill="none" xmlns="http://www.w3.org/2000/svg">
<path d="M7.107 1.67401C8.00638 1.22905 8.99657 0.998362 10 1.00001C13.727 1.00001 16.75 4.13601 16.75 8.00501V8.71001C16.7488 9.55156 16.989 10.3758 17.442 11.085L18.55 12.809C19.561 14.384 18.789 16.525 17.03 17.023C12.4337 18.3247 7.56629 18.3247 2.97 17.023C1.211 16.525 0.439001 14.384 1.45 12.81L2.558 11.085C3.01105 10.3758 3.2512 9.55156 3.25 8.71001V8.00501C3.25 6.93101 3.483 5.91301 3.9 5.00301M5.5 18C6.155 19.748 7.922 21 10 21C10.2447 21 10.4847 20.9833 10.72 20.95M14.5 18C14.2291 18.7139 13.7811 19.3471 13.198 19.84" stroke="black" stroke-width="1.5" stroke-linecap="round"/>
</svg>
