<svg width="20" height="20" viewBox="0 0 20 20" fill="none" xmlns="http://www.w3.org/2000/svg">
<path d="M1.66634 6.66667C1.66634 6.66667 5.3973 2.5 9.99967 2.5C14.602 2.5 18.333 6.66667 18.333 6.66667" stroke="#D9D9D9" stroke-width="1.5" stroke-linecap="round"/>
<path d="M17.9531 10.871C18.2065 11.2263 18.3332 11.4039 18.3332 11.6668C18.3332 11.9298 18.2065 12.1074 17.9531 12.4627C16.8148 14.059 13.9075 17.5002 9.99984 17.5002C6.09215 17.5002 3.18492 14.059 2.04654 12.4627C1.79318 12.1074 1.6665 11.9298 1.6665 11.6668C1.6665 11.4039 1.79318 11.2263 2.04654 10.871C3.18492 9.2747 6.09215 5.8335 9.99984 5.8335C13.9075 5.8335 16.8148 9.2747 17.9531 10.871Z" stroke="#D9D9D9" stroke-width="1.5"/>
<path d="M12.5 11.6665C12.5 10.2858 11.3807 9.1665 10 9.1665C8.61929 9.1665 7.5 10.2858 7.5 11.6665C7.5 13.0472 8.61929 14.1665 10 14.1665C11.3807 14.1665 12.5 13.0472 12.5 11.6665Z" stroke="#D9D9D9" stroke-width="1.5"/>
</svg>