<svg width="24" height="24" viewBox="0 0 24 24" fill="none" xmlns="http://www.w3.org/2000/svg">
<mask id="mask0_2038_18" style="mask-type:alpha" maskUnits="userSpaceOnUse" x="0" y="0" width="24" height="24">
<rect width="24" height="24" fill="#D9D9D9"/>
</mask>
<g mask="url(#mask0_2038_18)">
<path d="M19.1 21.9L15.6 18.45C15.0167 18.6333 14.425 18.7708 13.825 18.8625C13.225 18.9542 12.6167 19 12 19C9.76669 19 7.72502 18.4 5.87502 17.2C4.02502 16 2.57502 14.4167 1.52502 12.45C1.44169 12.3 1.37919 12.1458 1.33752 11.9875C1.29586 11.8292 1.27502 11.6667 1.27502 11.5C1.27502 11.3333 1.29586 11.1708 1.33752 11.0125C1.37919 10.8542 1.44169 10.7 1.52502 10.55C1.89169 9.90001 2.28336 9.26667 2.70002 8.65001C3.11669 8.03334 3.60002 7.48334 4.15002 7.00001L2.07502 4.90001C1.89169 4.71667 1.80002 4.48751 1.80002 4.21251C1.80002 3.93751 1.90002 3.70001 2.10002 3.50001C2.28336 3.31667 2.51669 3.22501 2.80002 3.22501C3.08336 3.22501 3.31669 3.31667 3.50002 3.50001L20.5 20.5C20.6834 20.6833 20.7792 20.9125 20.7875 21.1875C20.7959 21.4625 20.7 21.7 20.5 21.9C20.3167 22.0833 20.0834 22.175 19.8 22.175C19.5167 22.175 19.2834 22.0833 19.1 21.9ZM12 16C12.1834 16 12.3584 15.9917 12.525 15.975C12.6917 15.9583 12.8584 15.925 13.025 15.875L7.62502 10.475C7.57502 10.6417 7.54169 10.8083 7.52502 10.975C7.50836 11.1417 7.50002 11.3167 7.50002 11.5C7.50002 12.75 7.93752 13.8125 8.81252 14.6875C9.68752 15.5625 10.75 16 12 16ZM12 4.00001C14.2334 4.00001 16.2792 4.60417 18.1375 5.81251C19.9959 7.02084 21.45 8.60834 22.5 10.575C22.5834 10.7083 22.6459 10.8542 22.6875 11.0125C22.7292 11.1708 22.75 11.3333 22.75 11.5C22.75 11.6667 22.7334 11.8292 22.7 11.9875C22.6667 12.1458 22.6084 12.2917 22.525 12.425C22.2084 13.0417 21.8542 13.625 21.4625 14.175C21.0709 14.725 20.6334 15.2417 20.15 15.725C19.9167 15.9583 19.6417 16.0667 19.325 16.05C19.0084 16.0333 18.7334 15.9083 18.5 15.675L16.5 13.675C16.3834 13.5583 16.3084 13.4208 16.275 13.2625C16.2417 13.1042 16.25 12.9417 16.3 12.775C16.3667 12.5583 16.4167 12.35 16.45 12.15C16.4834 11.95 16.5 11.7333 16.5 11.5C16.5 10.25 16.0625 9.18751 15.1875 8.31251C14.3125 7.43751 13.25 7.00001 12 7.00001C11.7667 7.00001 11.55 7.01667 11.35 7.05001C11.15 7.08334 10.9417 7.13334 10.725 7.20001C10.5584 7.25001 10.3917 7.25834 10.225 7.22501C10.0584 7.19167 9.91669 7.11667 9.80002 7.00001L8.97502 6.17501C8.65836 5.85834 8.55419 5.49167 8.66252 5.07501C8.77086 4.65834 9.03336 4.39167 9.45002 4.27501C9.86669 4.19167 10.2875 4.12501 10.7125 4.07501C11.1375 4.02501 11.5667 4.00001 12 4.00001ZM13.975 9.65001C14.1584 9.86667 14.3125 10.1042 14.4375 10.3625C14.5625 10.6208 14.6417 10.8917 14.675 11.175C14.6917 11.3083 14.6417 11.4 14.525 11.45C14.4084 11.5 14.3 11.475 14.2 11.375L12.15 9.32501C12.05 9.22501 12.0292 9.11667 12.0875 9.00001C12.1459 8.88334 12.2417 8.82501 12.375 8.82501C12.6917 8.85834 12.9834 8.94584 13.25 9.08751C13.5167 9.22917 13.7584 9.41667 13.975 9.65001Z" fill="#656565"/>
</g>
</svg>
