<svg width="35" height="35" viewBox="0 0 35 35" fill="none" xmlns="http://www.w3.org/2000/svg">
<path d="M13.7831 28.9473L13.9412 29.4217L13.7831 28.9473ZM21.5331 26.364L21.6912 26.8384H21.6912L21.5331 26.364ZM28.8738 10.5013L28.5202 10.1477L28.8738 10.5013ZM12.8321 17.2071L13.1857 16.8536L12.8321 17.2071ZM6.83334 6.33337H28.1667V5.33337H6.83334V6.33337ZM6.33334 9.79416V6.83337H5.33334V9.79416H6.33334ZM13.1857 16.8536L6.47978 10.1477L5.77268 10.8548L12.4785 17.5607L13.1857 16.8536ZM12.625 17.9142V28.473H13.625V17.9142H12.625ZM12.625 28.473C12.625 29.1556 13.2937 29.6375 13.9412 29.4217L13.625 28.473H13.625H12.625ZM13.9412 29.4217L21.6912 26.8384L21.375 25.8897L13.625 28.473L13.9412 29.4217ZM21.6912 26.8384C22.0996 26.7022 22.375 26.3201 22.375 25.8897H21.375L21.375 25.8897L21.6912 26.8384ZM22.375 25.8897V17.9143H21.375V25.8897H22.375ZM28.5202 10.1477L21.8143 16.8536L22.5214 17.5607L29.2273 10.8548L28.5202 10.1477ZM28.6667 6.83337V9.79416H29.6667V6.83337H28.6667ZM29.2273 10.8548C29.5086 10.5735 29.6667 10.192 29.6667 9.79416H28.6667C28.6667 9.92677 28.614 10.0539 28.5202 10.1477L29.2273 10.8548ZM22.375 17.9143C22.375 17.7817 22.4277 17.6545 22.5214 17.5607L21.8143 16.8536C21.533 17.1349 21.375 17.5164 21.375 17.9143H22.375ZM12.4785 17.5607C12.5723 17.6545 12.625 17.7816 12.625 17.9142H13.625C13.625 17.5164 13.467 17.1349 13.1857 16.8536L12.4785 17.5607ZM5.33334 9.79416C5.33334 10.192 5.49137 10.5735 5.77268 10.8548L6.47978 10.1477C6.38601 10.0539 6.33334 9.92677 6.33334 9.79416H5.33334ZM28.1667 6.33337C28.4428 6.33337 28.6667 6.55723 28.6667 6.83337H29.6667C29.6667 6.00495 28.9951 5.33337 28.1667 5.33337V6.33337ZM6.83334 5.33337C6.00491 5.33337 5.33334 6.00495 5.33334 6.83337H6.33334C6.33334 6.55723 6.55719 6.33337 6.83334 6.33337V5.33337Z" fill="white"/>
</svg>
