<svg width="14" height="16" viewBox="0 0 14 16" fill="none" xmlns="http://www.w3.org/2000/svg">
<path d="M12.5 1H1.5C0.671875 1 0 1.67188 0 2.5V13.5C0 14.3281 0.671875 15 1.5 15H12.5C13.3281 15 14 14.3281 14 13.5V2.5C14 1.67188 13.3281 1 12.5 1ZM0.665625 7.1625H0.65625C0.659375 7.15937 0.6625 7.15313 0.665625 7.15V7.1625ZM3.03125 9.99375H2V6H3.03125V9.99375ZM6.56875 9.99375H5.67188V7.29375L5.30937 9.99375H4.66563L4.28438 7.35313V9.99375H3.37812V6H4.71562C4.81875 6.61875 4.90313 7.24687 4.9875 7.87187L5.225 6H6.56875V9.99375ZM6.925 9.99375V6H7.69375C8.24375 6 9.09063 5.95 9.225 6.65312C9.27813 6.89062 9.26875 7.1625 9.26875 7.41563C9.26875 10.1813 9.61563 9.99687 6.925 9.99375ZM11.9531 9.08125C11.9531 9.57188 11.8781 10.0469 11.2594 10.0469C10.9781 10.0469 10.7844 9.95313 10.6062 9.74063L10.5469 9.99375H9.61563V6H10.6062V7.30312C10.7937 7.1 10.9812 7.01562 11.2594 7.01562C11.9281 7.01562 11.9531 7.41563 11.9531 7.95625V9.08125ZM8.28125 7.18437C8.28125 6.88125 8.33125 6.68437 7.95937 6.68437V9.3C8.34062 9.30938 8.28125 9.02813 8.28125 8.725V7.18437ZM10.9531 8C10.9531 7.83125 10.9875 7.60313 10.7594 7.60313C10.5719 7.60313 10.6062 7.88125 10.6062 8C10.6062 8.01875 10.5719 9.2375 10.6406 9.39688C10.6656 9.44688 10.7094 9.47188 10.7594 9.47188C11.0031 9.47188 10.9531 9.19063 10.9531 9.02188V8Z" fill="black"/>
</svg>
