<svg width="39" height="39" viewBox="0 0 39 39" fill="none" xmlns="http://www.w3.org/2000/svg">
<mask id="mask0_2_355" style="mask-type:alpha" maskUnits="userSpaceOnUse" x="0" y="0" width="39" height="39">
<rect width="39" height="39" fill="#D9D9D9"/>
</mask>
<g mask="url(#mask0_2_355)">
<path d="M19.5 31.3124C18.8297 31.3124 18.2559 31.0737 17.7785 30.5964C17.3012 30.1191 17.0625 29.5452 17.0625 28.875C17.0625 28.2046 17.3012 27.6308 17.7785 27.1535C18.2559 26.6762 18.8297 26.4375 19.5 26.4375C20.1702 26.4375 20.7441 26.6762 21.2214 27.1535C21.6987 27.6308 21.9374 28.2046 21.9374 28.875C21.9374 29.5452 21.6987 30.1191 21.2214 30.5964C20.7441 31.0737 20.1702 31.3124 19.5 31.3124ZM19.5 21.9374C18.8297 21.9374 18.2559 21.6988 17.7785 21.2214C17.3012 20.7441 17.0625 20.1703 17.0625 19.5C17.0625 18.8297 17.3012 18.2559 17.7785 17.7785C18.2559 17.3012 18.8297 17.0625 19.5 17.0625C20.1702 17.0625 20.7441 17.3012 21.2214 17.7785C21.6987 18.2559 21.9374 18.8297 21.9374 19.5C21.9374 20.1703 21.6987 20.7441 21.2214 21.2214C20.7441 21.6988 20.1702 21.9374 19.5 21.9374ZM19.5 12.5624C18.8297 12.5624 18.2559 12.3238 17.7785 11.8464C17.3012 11.3691 17.0625 10.7953 17.0625 10.125C17.0625 9.4547 17.3012 8.88088 17.7785 8.40354C18.2559 7.92622 18.8297 7.68756 19.5 7.68756C20.1702 7.68756 20.7441 7.92622 21.2214 8.40354C21.6987 8.88088 21.9374 9.4547 21.9374 10.125C21.9374 10.7953 21.6987 11.3691 21.2214 11.8464C20.7441 12.3238 20.1702 12.5624 19.5 12.5624Z" fill="white"/>
</g>
</svg>
