<svg width="16" height="16" viewBox="0 0 16 16" fill="none" xmlns="http://www.w3.org/2000/svg">
<path d="M8.835 3.003C9.663 2.997 11.523 3.003 11.523 3.003L11.556 3.033V3.321C11.556 3.401 11.5117 3.441 11.423 3.441C10.99 3.461 10.901 3.504 10.743 3.731C10.656 3.857 10.485 4.124 10.308 4.425L8.788 7.268L8.745 7.357L10.603 11.158L10.716 11.189L13.642 4.243C13.7433 3.963 13.7287 3.76467 13.598 3.648C13.466 3.534 13.374 3.468 13.035 3.453L12.76 3.439C12.725 3.43814 12.6913 3.42585 12.664 3.404C12.6499 3.39497 12.6383 3.38254 12.6303 3.36787C12.6223 3.35319 12.618 3.33673 12.618 3.32V3.031L12.66 3.001H15.966L16 3.031V3.321C16 3.399 15.9557 3.438 15.867 3.438C15.4337 3.458 15.113 3.55167 14.905 3.719C14.6828 3.90629 14.5144 4.14925 14.417 4.423C14.417 4.423 11.726 10.583 10.805 12.631C10.452 13.303 10.105 13.241 9.801 12.612C9.2035 11.3502 8.61781 10.0828 8.044 8.81C7.421 10.095 6.569 11.836 6.146 12.62C5.735 13.335 5.396 13.242 5.126 12.639C4.676 11.574 3.995 10.12 3.309 8.657C2.574 7.088 1.834 5.508 1.366 4.385C1.199 3.985 1.073 3.728 0.954 3.626C0.834 3.526 0.585333 3.466 0.208 3.446C0.0693333 3.42934 0 3.39434 0 3.341V3.038L0.034 3.008C0.649 3.005 3.628 3.008 3.628 3.008L3.662 3.038V3.326C3.662 3.40534 3.612 3.44467 3.512 3.444L3.137 3.46C2.815 3.47334 2.654 3.56934 2.654 3.748C2.65267 3.83134 2.689 3.96467 2.763 4.148C3.483 5.901 5.97 11.146 5.97 11.146L6.061 11.169L7.664 7.972L7.344 7.262L6.24 5.095C6.24 5.095 6.027 4.662 5.954 4.518L5.856 4.322C5.469 3.552 5.445 3.502 4.991 3.442C4.854 3.425 4.783 3.407 4.783 3.34V3.036L4.824 3.006H7.677L7.752 3.03V3.333C7.752 3.40234 7.702 3.437 7.602 3.437L7.396 3.467C6.873 3.507 6.958 3.721 7.306 4.413L8.363 6.576L9.533 4.244C9.728 3.817 9.688 3.71 9.607 3.611C9.561 3.556 9.405 3.467 9.067 3.453L8.934 3.438C8.89915 3.43743 8.86544 3.42549 8.838 3.404C8.82396 3.39476 8.81248 3.38212 8.80461 3.36727C8.79674 3.35241 8.79275 3.33581 8.793 3.319V3.031L8.834 3.001L8.835 3.003Z" fill="black"/>
</svg>
